<svg width="70" height="70" viewBox="0 0 70 70" fill="none" xmlns="http://www.w3.org/2000/svg">
<g id="Add Btn">
<circle id="Ellipse 1" cx="35" cy="35" r="33.5" stroke="#C4C4C4" stroke-width="3"/>
<path id="Union" fill-rule="evenodd" clip-rule="evenodd" d="M34.5 17C33.2489 17 32.2347 18.0142 32.2347 19.2653V33.2347H18.2653C17.0142 33.2347 16 34.2489 16 35.5C16 36.7511 17.0142 37.7653 18.2653 37.7653H32.2347V51.7347C32.2347 52.9858 33.2489 54 34.5 54C35.7511 54 36.7653 52.9858 36.7653 51.7347V37.7653H50.7347C51.9858 37.7653 53 36.7511 53 35.5C53 34.2489 51.9858 33.2347 50.7347 33.2347H36.7653V19.2653C36.7653 18.0142 35.7511 17 34.5 17Z" fill="#C4C4C4"/>
</g>
</svg>
