<svg width="74" height="85" viewBox="0 0 74 85" fill="none" xmlns="http://www.w3.org/2000/svg">
<g id="Group 14">
<g id="Group">
<path id="Vector" d="M41.5531 11.498C41.5531 4.92649 36.6233 1.64145 36.6233 1.64145C26.7668 8.21299 26.7668 27.9247 25.125 37.7813C24.5099 41.4778 24.1232 43.0947 23.1903 43.8153C21.6334 45.0192 18.5534 43.7362 10.3401 45.4468C-2.8015 48.1856 2.12679 62.4212 2.12679 62.4212C11.9834 52.5646 15.2684 59.1362 15.2684 59.1362C20.1967 73.921 30.0533 72.2778 30.0533 72.2778C31.6951 78.8493 30.0533 82.1344 30.0533 82.1344C34.9816 87.0627 69.4781 77.2061 52.366 76.1106C35.254 75.0165 36.6233 60.7809 36.6233 60.7809C42.6867 57.4124 47.7687 53.9194 52.0248 50.4015C52.0248 50.4015 53.05 47.6393 49.765 39.426" stroke="white" stroke-width="2.0022" stroke-miterlimit="10" stroke-linecap="round" stroke-linejoin="round"/>
<path id="Vector_2" d="M23.4819 44.3529C25.1252 32.8531 43.1951 18.0697 43.1951 18.0697C43.1951 18.0697 61.265 4.92807 72.7634 4.92807C72.7634 4.92807 72.7633 29.568 57.9785 45.9947C57.9785 45.9947 57.9785 36.1381 54.6934 32.8531" stroke="white" stroke-width="2.0022" stroke-miterlimit="10" stroke-linecap="round" stroke-linejoin="round"/>
</g>
</g>
</svg>
