<svg width="17" height="25" viewBox="0 0 17 25" fill="none" xmlns="http://www.w3.org/2000/svg">
<g id="Group 3">
<path id="Vector" d="M16.3229 6.94857L10.5229 1.14857C10.3571 0.982859 10.1914 0.900002 9.94286 0.900002H1.65714C0.745714 0.900002 0 1.64572 0 2.55714V22.4429C0 23.3543 0.745714 24.1 1.65714 24.1H14.9143C15.8257 24.1 16.5714 23.3543 16.5714 22.4429V7.52857C16.5714 7.28 16.4886 7.11429 16.3229 6.94857ZM9.94286 2.88857L14.5829 7.52857H9.94286V2.88857ZM14.9143 22.4429H1.65714V2.55714H8.28571V7.52857C8.28571 8.44 9.03143 9.18571 9.94286 9.18571H14.9143V22.4429Z" fill="white"/>
<path id="Vector_2" d="M3.31421 17.4714H13.2571V19.1286H3.31421V17.4714Z" fill="white"/>
<path id="Vector_3" d="M3.31421 12.5H13.2571V14.1571H3.31421V12.5Z" fill="white"/>
</g>
</svg>
